<svg fill="#ffffff" xmlns="http://www.w3.org/2000/svg"  viewBox="0 0 24 24" width="24px" height="24px"><path d="M 12 2 C 8.554688 2 5.625 2.882813 4.5 3.53125 C 4.183594 3.714844 4.007813 4.070313 4.03125 4.4375 L 4.875 17.125 C 4.945313 18.175781 5.820313 19 6.875 19 L 17.125 19 C 18.179688 19 19.054688 18.175781 19.125 17.125 L 19.96875 4.4375 C 19.992188 4.070313 19.816406 3.714844 19.5 3.53125 C 18.371094 2.882813 15.445313 2 12 2 Z M 12 4 C 15.316406 4 18 5.085938 18 5.5 L 17.5 13 L 6.5 13 L 6 5.5 C 6 5.085938 8.683594 4 12 4 Z M 12 6 C 12 6 9.90625 8.507813 9.90625 9.90625 C 9.90625 11.066406 10.839844 12 12 12 C 13.160156 12 14.09375 11.066406 14.09375 9.90625 C 14.09375 8.507813 12 6 12 6 Z M 7 15 L 11 15 L 11 17 L 7 17 Z M 13 15 L 17 15 L 17 17 L 13 17 Z M 10 20 L 10 22 L 14 22 L 14 20 Z"/></svg>